<?xml version="1.0" encoding="UTF-8"?>
<svg id="Calque_1" data-name="Calque 1" xmlns="http://www.w3.org/2000/svg" viewBox="0 0 1201 1160">
  <path d="M1191.31,964.9s-18.71.47-27.7,0c0,0-148.23-28.1-179.81-34.41-31.58-6.31-211.54-28.42-211.54-28.42l-25.88-152.19,69.61,6.8s-109.4-61.09-215.48-207.6c-106.09,146.51-215.49,207.6-215.49,207.6l69.61-6.8-25.88,152.19s-179.97,22.1-211.54,28.42c-31.58,6.31-179.81,34.41-179.81,34.41-8.99.47-27.7,0-27.7,0,111.54-120.77,169.31-214.22,169.31-214.22,0,0-65.82,5.69-68.67,5.69s-1.9-2.21-1.9-2.21c106.09-126.93,145.24-224.51,145.24-224.51,0,0-65.97,4.07-69.72,4.21-3.74.16-2.1-2.78-2.1-2.78,162.91-201.75,206.49-409.18,206.49-409.18,5.67,11.05,42.31,105.14,89.04,206.8,97.87-187.55,123.14-278.48,123.14-278.48,0,0,25.25,90.93,123.12,278.48,46.74-101.66,83.36-195.76,89.04-206.8,0,0,43.58,207.43,206.5,409.18,0,0,1.63,2.93-2.11,2.78-3.75-.14-69.71-4.21-69.71-4.21,0,0,39.13,97.58,145.23,224.51,0,0,.94,2.21-1.89,2.21s-68.67-5.69-68.67-5.69c0,0,57.77,93.45,169.31,214.22Z"/>
</svg>