<svg xmlns="http://www.w3.org/2000/svg" width="48" height="48" viewBox="0 0 24 24"><path fill="none" stroke="#ffffff" stroke-linecap="round" stroke-miterlimit="10" stroke-width="1.5" d="M12.735 20.191a15.2 15.2 0 0 1-.92-.447a19.012 19.012 0 0 1-4.1-3.12A18.002 18.002 0 0 1 3.88 11.42a11.259 11.259 0 0 1-1.022-3.325a5.925 5.925 0 0 1 .37-3.465c.289-.47.637-.9 1.035-1.279a1.801 1.801 0 0 1 1.278-.601c.505.076.962.34 1.278.742c.69.767 1.43 1.457 2.159 2.186c.287.246.466.595.498.972c-.012.317-.134.62-.345.857c-.242.307-.536.588-.817.882a1.535 1.535 0 0 0-.46 1.279a3.67 3.67 0 0 0 .881 1.457c.486.665.971 1.28 1.52 1.931a13.573 13.573 0 0 0 3.463 2.865a1.277 1.277 0 0 0 1.278.153a4.05 4.05 0 0 0 1.137-.946c.275-.335.669-.55 1.099-.601c.383.02.744.184 1.01.46c.344.294.638.64.958.959c.319.32.575.55.843.844c.321.283.624.586.907.908c.22.284.324.64.294.997a2.1 2.1 0 0 1-.703 1.087a4.78 4.78 0 0 1-3.756 1.458a10.673 10.673 0 0 1-4.05-1.049Z"/></svg>