<svg width="684" height="530" viewBox="0 0 684 530" fill="none" xmlns="http://www.w3.org/2000/svg">
<path d="M683.779 529.095C683.779 529.095 672.952 529.367 667.75 529.095C667.75 529.095 581.971 512.841 563.697 509.191C545.422 505.541 441.282 492.751 441.282 492.751L426.305 404.717L466.587 408.651C466.587 408.651 403.279 373.313 341.893 288.565C280.5 373.313 217.192 408.651 217.192 408.651L257.474 404.717L242.498 492.751C242.498 492.751 138.352 505.535 120.083 509.191C101.808 512.841 16.0296 529.095 16.0296 529.095C10.8272 529.367 0 529.095 0 529.095C64.5465 459.236 97.9771 405.18 97.9771 405.18C97.9771 405.18 59.8881 408.471 58.2388 408.471C56.5896 408.471 57.1393 407.193 57.1393 407.193C118.532 333.77 141.187 277.325 141.187 277.325C141.187 277.325 103.012 279.68 100.842 279.761C98.6773 279.853 99.6263 278.153 99.6263 278.153C193.9 161.451 219.119 41.4632 219.119 41.4632C222.4 47.855 243.603 102.281 270.645 161.086C327.281 52.5983 341.904 0 341.904 0C341.904 0 356.516 52.5983 413.152 161.086C440.199 102.281 461.391 47.8492 464.678 41.4632C464.678 41.4632 489.897 161.451 584.176 278.153C584.176 278.153 585.119 279.847 582.955 279.761C580.785 279.68 542.615 277.325 542.615 277.325C542.615 277.325 565.259 333.77 626.657 407.193C626.657 407.193 627.201 408.471 625.564 408.471C623.926 408.471 585.825 405.18 585.825 405.18C585.825 405.18 619.256 459.236 683.802 529.095H683.779Z" fill="black"/>
</svg>
